<mxfile host="Electron" modified="2024-02-06T03:56:14.671Z" agent="Mozilla/5.0 (Windows NT 10.0; Win64; x64) AppleWebKit/537.36 (KHTML, like Gecko) draw.io/23.0.2 Chrome/120.0.6099.109 Electron/28.1.0 Safari/537.36" etag="1zkcNf0bgzz5Xe56ZRMV" version="23.0.2" type="device">
  <diagram name="Page-1" id="8_DUxyT_L_gy8EFNLQId">
    <mxGraphModel dx="864" dy="556" grid="0" gridSize="10" guides="1" tooltips="1" connect="1" arrows="1" fold="1" page="1" pageScale="1" pageWidth="850" pageHeight="1100" math="0" shadow="0">
      <root>
        <mxCell id="0" />
        <mxCell id="1" parent="0" />
        <mxCell id="KLl_sFaSeSqgi3-G7QuZ-60" style="edgeStyle=none;rounded=0;orthogonalLoop=1;jettySize=auto;html=1;exitX=0;exitY=0.5;exitDx=0;exitDy=0;endArrow=none;endFill=0;" parent="1" edge="1">
          <mxGeometry relative="1" as="geometry">
            <mxPoint x="213" y="327.33333333333337" as="targetPoint" />
            <mxPoint x="283" y="327" as="sourcePoint" />
          </mxGeometry>
        </mxCell>
        <mxCell id="KLl_sFaSeSqgi3-G7QuZ-61" style="edgeStyle=none;rounded=0;orthogonalLoop=1;jettySize=auto;html=1;exitX=0;exitY=0.25;exitDx=0;exitDy=0;exitPerimeter=0;endArrow=none;endFill=0;" parent="1" source="KLl_sFaSeSqgi3-G7QuZ-13" edge="1">
          <mxGeometry relative="1" as="geometry">
            <mxPoint x="213" y="422.33333333333337" as="targetPoint" />
          </mxGeometry>
        </mxCell>
        <mxCell id="KLl_sFaSeSqgi3-G7QuZ-62" style="edgeStyle=none;rounded=0;orthogonalLoop=1;jettySize=auto;html=1;exitX=0;exitY=0.75;exitDx=0;exitDy=0;exitPerimeter=0;endArrow=none;endFill=0;" parent="1" source="KLl_sFaSeSqgi3-G7QuZ-13" edge="1">
          <mxGeometry relative="1" as="geometry">
            <mxPoint x="213" y="452.33333333333337" as="targetPoint" />
          </mxGeometry>
        </mxCell>
        <mxCell id="KLl_sFaSeSqgi3-G7QuZ-76" style="edgeStyle=none;rounded=0;orthogonalLoop=1;jettySize=auto;html=1;exitX=0;exitY=0.25;exitDx=0;exitDy=0;exitPerimeter=0;endArrow=none;endFill=0;" parent="1" source="KLl_sFaSeSqgi3-G7QuZ-14" edge="1">
          <mxGeometry relative="1" as="geometry">
            <mxPoint x="594" y="327" as="targetPoint" />
            <Array as="points">
              <mxPoint x="594" y="362" />
            </Array>
          </mxGeometry>
        </mxCell>
        <mxCell id="KLl_sFaSeSqgi3-G7QuZ-78" style="edgeStyle=none;rounded=0;orthogonalLoop=1;jettySize=auto;html=1;exitX=0;exitY=0.75;exitDx=0;exitDy=0;exitPerimeter=0;endArrow=none;endFill=0;" parent="1" source="KLl_sFaSeSqgi3-G7QuZ-14" edge="1">
          <mxGeometry relative="1" as="geometry">
            <mxPoint x="597" y="437" as="targetPoint" />
            <Array as="points">
              <mxPoint x="597" y="392" />
            </Array>
          </mxGeometry>
        </mxCell>
        <mxCell id="KLl_sFaSeSqgi3-G7QuZ-14" value="" style="verticalLabelPosition=bottom;shadow=0;dashed=0;align=center;html=1;verticalAlign=top;shape=mxgraph.electrical.logic_gates.logic_gate;operation=xor;" parent="1" vertex="1">
          <mxGeometry x="633" y="347" width="100" height="60" as="geometry" />
        </mxCell>
        <mxCell id="KLl_sFaSeSqgi3-G7QuZ-15" value="" style="verticalLabelPosition=bottom;shadow=0;dashed=0;align=center;html=1;verticalAlign=top;shape=mxgraph.electrical.logic_gates.logic_gate;operation=xor;" parent="1" vertex="1">
          <mxGeometry x="483" y="577" width="100" height="60" as="geometry" />
        </mxCell>
        <mxCell id="KLl_sFaSeSqgi3-G7QuZ-68" style="edgeStyle=none;rounded=0;orthogonalLoop=1;jettySize=auto;html=1;exitX=0;exitY=0.25;exitDx=0;exitDy=0;exitPerimeter=0;endArrow=none;endFill=0;" parent="1" source="KLl_sFaSeSqgi3-G7QuZ-16" edge="1">
          <mxGeometry relative="1" as="geometry">
            <mxPoint x="283" y="531" as="targetPoint" />
          </mxGeometry>
        </mxCell>
        <mxCell id="KLl_sFaSeSqgi3-G7QuZ-69" style="edgeStyle=none;rounded=0;orthogonalLoop=1;jettySize=auto;html=1;exitX=0;exitY=0.75;exitDx=0;exitDy=0;exitPerimeter=0;endArrow=none;endFill=0;" parent="1" source="KLl_sFaSeSqgi3-G7QuZ-16" edge="1">
          <mxGeometry relative="1" as="geometry">
            <mxPoint x="253" y="562" as="targetPoint" />
            <Array as="points">
              <mxPoint x="253" y="682" />
            </Array>
          </mxGeometry>
        </mxCell>
        <mxCell id="KLl_sFaSeSqgi3-G7QuZ-16" value="" style="verticalLabelPosition=bottom;shadow=0;dashed=0;align=center;html=1;verticalAlign=top;shape=mxgraph.electrical.logic_gates.logic_gate;operation=or;" parent="1" vertex="1">
          <mxGeometry x="283" y="637" width="100" height="60" as="geometry" />
        </mxCell>
        <mxCell id="KLl_sFaSeSqgi3-G7QuZ-63" style="edgeStyle=none;rounded=0;orthogonalLoop=1;jettySize=auto;html=1;exitX=0;exitY=0.25;exitDx=0;exitDy=0;exitPerimeter=0;endArrow=none;endFill=0;" parent="1" source="KLl_sFaSeSqgi3-G7QuZ-13" edge="1">
          <mxGeometry relative="1" as="geometry">
            <mxPoint x="283" y="427" as="targetPoint" />
          </mxGeometry>
        </mxCell>
        <mxCell id="KLl_sFaSeSqgi3-G7QuZ-64" style="edgeStyle=none;rounded=0;orthogonalLoop=1;jettySize=auto;html=1;exitDx=0;exitDy=0;exitPerimeter=0;jumpSize=6;endArrow=none;endFill=0;endSize=5;" parent="1" source="KLl_sFaSeSqgi3-G7QuZ-72" edge="1">
          <mxGeometry relative="1" as="geometry">
            <mxPoint x="253" y="452" as="targetPoint" />
            <mxPoint x="253" y="557" as="sourcePoint" />
            <Array as="points" />
          </mxGeometry>
        </mxCell>
        <mxCell id="KLl_sFaSeSqgi3-G7QuZ-17" value="" style="verticalLabelPosition=bottom;shadow=0;dashed=0;align=center;html=1;verticalAlign=top;shape=mxgraph.electrical.logic_gates.logic_gate;operation=and;negating=1;negSize=0.15;" parent="1" vertex="1">
          <mxGeometry x="283" y="517" width="100" height="60" as="geometry" />
        </mxCell>
        <mxCell id="KLl_sFaSeSqgi3-G7QuZ-18" value="" style="verticalLabelPosition=bottom;shadow=0;dashed=0;align=center;html=1;verticalAlign=top;shape=mxgraph.electrical.logic_gates.logic_gate;operation=and;" parent="1" vertex="1">
          <mxGeometry x="633" y="457" width="100" height="60" as="geometry" />
        </mxCell>
        <mxCell id="KLl_sFaSeSqgi3-G7QuZ-67" value="" style="edgeStyle=none;rounded=0;orthogonalLoop=1;jettySize=auto;html=1;exitDx=0;exitDy=0;exitPerimeter=0;endArrow=none;endFill=0;" parent="1" source="KLl_sFaSeSqgi3-G7QuZ-70" target="KLl_sFaSeSqgi3-G7QuZ-13" edge="1">
          <mxGeometry relative="1" as="geometry">
            <mxPoint x="283" y="427" as="targetPoint" />
            <mxPoint x="283" y="532" as="sourcePoint" />
            <Array as="points">
              <mxPoint x="283" y="427" />
            </Array>
          </mxGeometry>
        </mxCell>
        <mxCell id="KLl_sFaSeSqgi3-G7QuZ-77" style="edgeStyle=none;rounded=0;orthogonalLoop=1;jettySize=auto;html=1;exitX=1;exitY=0.5;exitDx=0;exitDy=0;exitPerimeter=0;endArrow=none;endFill=0;" parent="1" source="KLl_sFaSeSqgi3-G7QuZ-13" edge="1">
          <mxGeometry relative="1" as="geometry">
            <mxPoint x="598" y="437.4545454545454" as="targetPoint" />
          </mxGeometry>
        </mxCell>
        <mxCell id="KLl_sFaSeSqgi3-G7QuZ-13" value="" style="verticalLabelPosition=bottom;shadow=0;dashed=0;align=center;html=1;verticalAlign=top;shape=mxgraph.electrical.logic_gates.logic_gate;operation=or;" parent="1" vertex="1">
          <mxGeometry x="283" y="407" width="100" height="60" as="geometry" />
        </mxCell>
        <mxCell id="KLl_sFaSeSqgi3-G7QuZ-71" value="" style="edgeStyle=none;rounded=0;orthogonalLoop=1;jettySize=auto;html=1;exitX=0;exitY=0.25;exitDx=0;exitDy=0;exitPerimeter=0;endArrow=none;endFill=0;" parent="1" source="KLl_sFaSeSqgi3-G7QuZ-17" target="KLl_sFaSeSqgi3-G7QuZ-70" edge="1">
          <mxGeometry relative="1" as="geometry">
            <mxPoint x="283" y="427" as="targetPoint" />
            <mxPoint x="283" y="532" as="sourcePoint" />
            <Array as="points" />
          </mxGeometry>
        </mxCell>
        <mxCell id="KLl_sFaSeSqgi3-G7QuZ-70" value="" style="shape=waypoint;sketch=0;fillStyle=solid;size=6;pointerEvents=1;points=[];fillColor=none;resizable=0;rotatable=0;perimeter=centerPerimeter;snapToPoint=1;" parent="1" vertex="1">
          <mxGeometry x="273" y="522" width="20" height="20" as="geometry" />
        </mxCell>
        <mxCell id="KLl_sFaSeSqgi3-G7QuZ-73" value="" style="edgeStyle=none;rounded=0;orthogonalLoop=1;jettySize=auto;html=1;exitX=0;exitY=0.75;exitDx=0;exitDy=0;exitPerimeter=0;jumpSize=6;endArrow=none;endFill=0;endSize=5;" parent="1" source="KLl_sFaSeSqgi3-G7QuZ-17" target="KLl_sFaSeSqgi3-G7QuZ-72" edge="1">
          <mxGeometry relative="1" as="geometry">
            <mxPoint x="253" y="452" as="targetPoint" />
            <mxPoint x="283" y="562" as="sourcePoint" />
            <Array as="points">
              <mxPoint x="253" y="562" />
            </Array>
          </mxGeometry>
        </mxCell>
        <mxCell id="KLl_sFaSeSqgi3-G7QuZ-72" value="" style="shape=waypoint;sketch=0;fillStyle=solid;size=6;pointerEvents=1;points=[];fillColor=none;resizable=0;rotatable=0;perimeter=centerPerimeter;snapToPoint=1;" parent="1" vertex="1">
          <mxGeometry x="243" y="552" width="20" height="20" as="geometry" />
        </mxCell>
        <mxCell id="KLl_sFaSeSqgi3-G7QuZ-75" style="edgeStyle=none;rounded=0;orthogonalLoop=1;jettySize=auto;html=1;exitX=1;exitY=0.5;exitDx=0;exitDy=0;exitPerimeter=0;endArrow=none;endFill=0;" parent="1" source="KLl_sFaSeSqgi3-G7QuZ-74" edge="1">
          <mxGeometry relative="1" as="geometry">
            <mxPoint x="594" y="327" as="targetPoint" />
          </mxGeometry>
        </mxCell>
        <mxCell id="KLl_sFaSeSqgi3-G7QuZ-74" value="" style="verticalLabelPosition=bottom;shadow=0;dashed=0;align=center;html=1;verticalAlign=top;shape=mxgraph.electrical.logic_gates.inverter_2;" parent="1" vertex="1">
          <mxGeometry x="281" y="297" width="99" height="60" as="geometry" />
        </mxCell>
        <mxCell id="KLl_sFaSeSqgi3-G7QuZ-80" value="" style="endArrow=none;html=1;rounded=0;entryX=0;entryY=0.25;entryDx=0;entryDy=0;entryPerimeter=0;" parent="1" target="KLl_sFaSeSqgi3-G7QuZ-18" edge="1">
          <mxGeometry width="50" height="50" relative="1" as="geometry">
            <mxPoint x="597" y="438" as="sourcePoint" />
            <mxPoint x="631" y="472" as="targetPoint" />
            <Array as="points">
              <mxPoint x="597" y="472" />
            </Array>
          </mxGeometry>
        </mxCell>
        <mxCell id="KLl_sFaSeSqgi3-G7QuZ-81" style="edgeStyle=none;rounded=0;orthogonalLoop=1;jettySize=auto;html=1;exitX=1;exitY=0.5;exitDx=0;exitDy=0;exitPerimeter=0;entryX=0;entryY=0.75;entryDx=0;entryDy=0;entryPerimeter=0;endArrow=none;endFill=0;" parent="1" source="KLl_sFaSeSqgi3-G7QuZ-16" target="KLl_sFaSeSqgi3-G7QuZ-15" edge="1">
          <mxGeometry relative="1" as="geometry">
            <Array as="points">
              <mxPoint x="483" y="667" />
            </Array>
          </mxGeometry>
        </mxCell>
        <mxCell id="KLl_sFaSeSqgi3-G7QuZ-82" style="edgeStyle=none;rounded=0;orthogonalLoop=1;jettySize=auto;html=1;exitX=1;exitY=0.5;exitDx=0;exitDy=0;exitPerimeter=0;entryX=0;entryY=0.25;entryDx=0;entryDy=0;entryPerimeter=0;endArrow=none;endFill=0;" parent="1" source="KLl_sFaSeSqgi3-G7QuZ-17" target="KLl_sFaSeSqgi3-G7QuZ-15" edge="1">
          <mxGeometry relative="1" as="geometry">
            <Array as="points">
              <mxPoint x="383" y="592" />
            </Array>
          </mxGeometry>
        </mxCell>
        <mxCell id="KLl_sFaSeSqgi3-G7QuZ-83" style="edgeStyle=none;rounded=0;orthogonalLoop=1;jettySize=auto;html=1;exitX=1;exitY=0.5;exitDx=0;exitDy=0;exitPerimeter=0;entryX=0;entryY=0.75;entryDx=0;entryDy=0;entryPerimeter=0;endArrow=none;endFill=0;" parent="1" source="KLl_sFaSeSqgi3-G7QuZ-15" target="KLl_sFaSeSqgi3-G7QuZ-18" edge="1">
          <mxGeometry relative="1" as="geometry">
            <Array as="points">
              <mxPoint x="595" y="607" />
              <mxPoint x="597" y="502" />
            </Array>
          </mxGeometry>
        </mxCell>
        <mxCell id="_deuGJvZ8htH8BvwYRHZ-1" value="&lt;font style=&quot;font-size: 18px;&quot; face=&quot;Comic Sans MS&quot;&gt;a&lt;/font&gt;" style="text;html=1;strokeColor=none;fillColor=none;align=center;verticalAlign=middle;whiteSpace=wrap;rounded=0;" parent="1" vertex="1">
          <mxGeometry x="170" y="404" width="60" height="30" as="geometry" />
        </mxCell>
        <mxCell id="_deuGJvZ8htH8BvwYRHZ-2" value="&lt;font style=&quot;font-size: 18px;&quot; face=&quot;Comic Sans MS&quot;&gt;b&lt;/font&gt;" style="text;html=1;strokeColor=none;fillColor=none;align=center;verticalAlign=middle;whiteSpace=wrap;rounded=0;" parent="1" vertex="1">
          <mxGeometry x="170" y="434" width="60" height="30" as="geometry" />
        </mxCell>
        <mxCell id="_deuGJvZ8htH8BvwYRHZ-3" value="&lt;font style=&quot;font-size: 18px;&quot; face=&quot;Comic Sans MS&quot;&gt;c&lt;/font&gt;" style="text;html=1;strokeColor=none;fillColor=none;align=center;verticalAlign=middle;whiteSpace=wrap;rounded=0;" parent="1" vertex="1">
          <mxGeometry x="170" y="309" width="60" height="30" as="geometry" />
        </mxCell>
        <mxCell id="_deuGJvZ8htH8BvwYRHZ-4" value="&lt;font style=&quot;font-size: 18px;&quot; face=&quot;Comic Sans MS&quot;&gt;y&lt;/font&gt;" style="text;html=1;strokeColor=none;fillColor=none;align=center;verticalAlign=middle;whiteSpace=wrap;rounded=0;" parent="1" vertex="1">
          <mxGeometry x="719" y="472" width="60" height="30" as="geometry" />
        </mxCell>
        <mxCell id="_deuGJvZ8htH8BvwYRHZ-5" value="&lt;font style=&quot;font-size: 18px;&quot; face=&quot;Comic Sans MS&quot;&gt;x&lt;/font&gt;" style="text;html=1;strokeColor=none;fillColor=none;align=center;verticalAlign=middle;whiteSpace=wrap;rounded=0;" parent="1" vertex="1">
          <mxGeometry x="714" y="362" width="60" height="30" as="geometry" />
        </mxCell>
        <mxCell id="tClvuCz3vUlL5920P6kz-1" value="&lt;font style=&quot;font-size: 18px;&quot; face=&quot;Comic Sans MS&quot;&gt;l&lt;/font&gt;" style="text;html=1;strokeColor=none;fillColor=none;align=center;verticalAlign=middle;whiteSpace=wrap;rounded=0;" parent="1" vertex="1">
          <mxGeometry x="390" y="295" width="60" height="30" as="geometry" />
        </mxCell>
        <mxCell id="tClvuCz3vUlL5920P6kz-2" value="&lt;font style=&quot;font-size: 18px;&quot; face=&quot;Comic Sans MS&quot;&gt;m&lt;/font&gt;" style="text;html=1;strokeColor=none;fillColor=none;align=center;verticalAlign=middle;whiteSpace=wrap;rounded=0;" parent="1" vertex="1">
          <mxGeometry x="392" y="404" width="60" height="30" as="geometry" />
        </mxCell>
        <mxCell id="tClvuCz3vUlL5920P6kz-3" value="&lt;font style=&quot;font-size: 18px;&quot; face=&quot;Comic Sans MS&quot;&gt;n&lt;/font&gt;" style="text;html=1;strokeColor=none;fillColor=none;align=center;verticalAlign=middle;whiteSpace=wrap;rounded=0;" parent="1" vertex="1">
          <mxGeometry x="390" y="565" width="60" height="30" as="geometry" />
        </mxCell>
        <mxCell id="tClvuCz3vUlL5920P6kz-4" value="&lt;font style=&quot;font-size: 18px;&quot; face=&quot;Comic Sans MS&quot;&gt;o&lt;/font&gt;" style="text;html=1;strokeColor=none;fillColor=none;align=center;verticalAlign=middle;whiteSpace=wrap;rounded=0;" parent="1" vertex="1">
          <mxGeometry x="392" y="642" width="60" height="30" as="geometry" />
        </mxCell>
        <mxCell id="tClvuCz3vUlL5920P6kz-5" value="&lt;font style=&quot;font-size: 18px;&quot; face=&quot;Comic Sans MS&quot;&gt;p&lt;/font&gt;" style="text;html=1;strokeColor=none;fillColor=none;align=center;verticalAlign=middle;whiteSpace=wrap;rounded=0;" parent="1" vertex="1">
          <mxGeometry x="573" y="579" width="60" height="30" as="geometry" />
        </mxCell>
      </root>
    </mxGraphModel>
  </diagram>
</mxfile>
